<svg xmlns="http://www.w3.org/2000/svg" xmlns:xlink="http://www.w3.org/1999/xlink" width="18" height="18" viewBox="0 0 18 18"><defs><path id="q337a" d="M771.23 3618a7.24 7.24 0 1 1-14.48-.02 7.24 7.24 0 0 1 14.48.02zm-.48 0a6.76 6.76 0 1 0-13.51.01 6.76 6.76 0 0 0 13.5-.01zm-5.79-.03c0 .53-.43.96-.96.96a.96.96 0 0 1-.93-.72h-1.72a.24.24 0 1 1 0-.48h1.72c.09-.34.35-.6.69-.69v-2.44a.24.24 0 1 1 .48 0v2.44c.42.1.72.48.72.93zm-.48 0a.48.48 0 1 0-.96 0 .48.48 0 0 0 .96 0zm-.72-5.06v-.24a.24.24 0 1 1 .48 0v.24a.24.24 0 0 1-.48 0zm.48 10.12v.24a.24.24 0 0 1-.48 0v-.24a.24.24 0 0 1 .48 0zm5.3-5.06c0 .13-.1.24-.24.24h-.24a.24.24 0 1 1 0-.48h.24c.13 0 .24.1.24.24zm-10.36 0c0 .13-.1.24-.24.24h-.24a.24.24 0 1 1 0-.48h.24c.13 0 .24.1.24.24zm8.74-3.92c.1.1.1.25 0 .34l-.17.17a.24.24 0 0 1-.17.07.24.24 0 0 1-.17-.41l.17-.17c.1-.1.24-.1.34 0zm-7.33 7.33c.1.1.1.24 0 .34l-.17.17a.24.24 0 0 1-.34 0 .24.24 0 0 1 0-.34l.17-.17c.1-.1.25-.1.34 0zm7.33.17a.24.24 0 0 1-.34.34l-.17-.17a.24.24 0 0 1 .34-.34zm-7.33-7.33a.24.24 0 1 1-.34.34l-.17-.17a.24.24 0 1 1 .34-.34z"/></defs><g><g transform="translate(-755 -3609)"><use fill="#898989" xlink:href="#q337a"/></g></g></svg>