<svg xmlns="http://www.w3.org/2000/svg" xmlns:xlink="http://www.w3.org/1999/xlink" width="21" height="20" viewBox="0 0 21 20"><defs><path id="mf82a" d="M753.09 3729.6a7.94 7.94 0 0 1-2.43 4.05l-6.21 5.56-6.11-5.56a7.94 7.94 0 0 1-2.43-4.05 5.02 5.02 0 0 1-.15-1.85c.26-2.82 2.25-4.87 4.75-4.87 1.63 0 3.1.88 3.94 2.33a4.72 4.72 0 0 1 4.04-2.33c2.5 0 4.5 2.05 4.75 4.87.02.12.1.78-.15 1.85zm-.52-1.75c-.22-2.5-1.93-4.3-4.08-4.3-1.62 0-3.08 1-3.73 2.54l-.31.74-.31-.74a3.95 3.95 0 0 0-3.63-2.53c-2.15 0-3.86 1.79-4.08 4.26v.03s-.1.58.14 1.6c.33 1.4 1.1 2.68 2.22 3.7l5.66 5.15 5.76-5.15a7.26 7.26 0 0 0 2.22-3.7c.24-1.02.14-1.6.14-1.6z"/></defs><g><g transform="translate(-734 -3721)"><use fill="#898989" xlink:href="#mf82a"/></g></g></svg>