<svg xmlns="http://www.w3.org/2000/svg" xmlns:xlink="http://www.w3.org/1999/xlink" width="30" height="22" viewBox="0 0 30 22"><defs><path id="i592a" d="M721.88 4377.05l8.18-7.93c.24.23.38.55.38.9v15.96c0 .33-.13.63-.34.86zm-17.9-7.96c.22-.2.52-.33.84-.33h24.36c.32 0 .62.13.84.33L717 4379.26zm-.08 17.75c-.2-.23-.34-.53-.34-.86v-15.96c0-.35.14-.67.38-.9l8.18 7.93zm13.1-5.06l3.42-3.31 9.62 8.42c-.22.22-.52.35-.86.35h-24.36c-.34 0-.64-.13-.86-.35l9.62-8.42z"/></defs><g><g transform="translate(-702 -4367)"><use fill="#898989" xlink:href="#i592a"/></g></g></svg>