<svg xmlns="http://www.w3.org/2000/svg" xmlns:xlink="http://www.w3.org/1999/xlink" width="18" height="30" viewBox="0 0 18 30"><defs><path id="ocf8a" d="M1034.5 4366.71v22.58c0 1.07-.87 1.94-1.95 1.94h-11.1a1.95 1.95 0 0 1-1.95-1.94v-22.58c0-1.07.87-1.94 1.95-1.94h11.1c1.08 0 1.95.87 1.95 1.94zm-14.12 18.34h13.23v-16.75h-13.23zm0-18.34v.7h13.23v-.7c0-.58-.47-1.06-1.06-1.06h-11.1c-.59 0-1.07.48-1.07 1.06zm13.23 22.58v-3.35h-13.23v3.35c0 .58.48 1.06 1.07 1.06h11.1c.59 0 1.06-.48 1.06-1.06zm-4.85-1.15a1.77 1.77 0 1 1-3.53 0 1.77 1.77 0 0 1 3.53 0zm-.88 0a.88.88 0 1 0-1.76 0 .88.88 0 0 0 1.76 0zm-3.09-21.6c0-.25.2-.45.45-.45h1.76a.44.44 0 1 1 0 .88h-1.76a.44.44 0 0 1-.45-.44zm3.1 0c0-.25.19-.45.43-.45h.44a.44.44 0 1 1 0 .88h-.44a.44.44 0 0 1-.44-.44zm.87 3.99v1.73c0 .5-.4.9-.9.9h-1.73a.9.9 0 0 1-.9-.9v-1.73c0-.5.4-.9.9-.9h1.74c.5 0 .9.4.9.9zm-.88 0l-1.75-.02-.01 1.75 1.75.01.01-.01zm-3.09 0v1.73c0 .5-.4.9-.9.9h-1.72a.9.9 0 0 1-.9-.9v-1.73c0-.5.4-.9.9-.9h1.73c.5 0 .9.4.9.9zm-.88 0l-1.74-.02-.02 1.75 1.75.01.01-.01zm8.82 0v1.73c0 .5-.4.9-.9.9h-1.73a.9.9 0 0 1-.9-.9v-1.73c0-.5.4-.9.9-.9h1.73c.5 0 .9.4.9.9zm-.88 0l-1.75-.02-.01 1.75 1.74.01.02-.01zm-3.09 3.96v1.73c0 .5-.4.9-.9.9h-1.73a.9.9 0 0 1-.9-.9v-1.73c0-.5.4-.9.9-.9h1.74c.5 0 .9.4.9.9zm-.88 0l-1.75-.02-.01 1.75 1.75.01.01-.01zm-3.09 0v1.73c0 .5-.4.9-.9.9h-1.72a.9.9 0 0 1-.9-.9v-1.73c0-.5.4-.9.9-.9h1.73c.5 0 .9.4.9.9zm-.88 0l-1.74-.02-.02 1.75 1.75.01.01-.01zm8.82 0v1.73c0 .5-.4.9-.9.9h-1.73a.9.9 0 0 1-.9-.9v-1.73c0-.5.4-.9.9-.9h1.73c.5 0 .9.4.9.9zm-.88 0l-1.75-.02-.01 1.75 1.74.01.02-.01zm-3.09 3.97v1.73c0 .5-.4.9-.9.9h-1.73a.9.9 0 0 1-.9-.9v-1.73c0-.5.4-.9.9-.9h1.74c.5 0 .9.4.9.9zm-.88 0l-1.75-.02-.01 1.75 1.75.01.01-.01zm-3.09 0v1.73c0 .5-.4.9-.9.9h-1.72a.9.9 0 0 1-.9-.9v-1.73c0-.5.4-.9.9-.9h1.73c.5 0 .9.4.9.9zm-.88 0l-1.74-.02-.02 1.75 1.75.01.01-.01zm8.82 0v1.73c0 .5-.4.9-.9.9h-1.73a.9.9 0 0 1-.9-.9v-1.73c0-.5.4-.9.9-.9h1.73c.5 0 .9.4.9.9zm-.88 0l-1.75-.02-.01 1.75 1.74.01.02-.01z"/></defs><g><g transform="translate(-1018 -4363)"><use fill="#fff" xlink:href="#ocf8a"/></g></g></svg>