<svg xmlns="http://www.w3.org/2000/svg" xmlns:xlink="http://www.w3.org/1999/xlink" width="18" height="19" viewBox="0 0 18 19"><defs><path id="wouna" d="M820.47 3734.87a2.73 2.73 0 0 1 0 3.9 2.75 2.75 0 0 1-4.7-1.96c0-.34.06-.67.18-.98l-4.77-2.9a2.75 2.75 0 1 1 0-3l4.77-2.88a2.74 2.74 0 0 1 2.57-3.73 2.76 2.76 0 1 1-2.32 4.23l-4.76 2.86a2.74 2.74 0 0 1 0 2.04l4.76 2.89a2.76 2.76 0 0 1 4.27-.47zm-4.15-8.8a2.2 2.2 0 1 0 4.4 0 2.2 2.2 0 0 0-4.4 0zm-5.24 5.36a2.2 2.2 0 1 0-4.4 0 2.2 2.2 0 0 0 4.4 0zm9.64 5.38a2.19 2.19 0 0 0-2.2-2.2 2.2 2.2 0 0 0-1.56 3.76 2.2 2.2 0 0 0 3.76-1.56z"/></defs><g><g transform="translate(-805 -3722)"><use fill="#898989" xlink:href="#wouna"/></g></g></svg>